<?xml version="1.0" standalone="no"?>
<!DOCTYPE svg PUBLIC "-//W3C//DTD SVG 20010904//EN"
 "http://www.w3.org/TR/2001/REC-SVG-20010904/DTD/svg10.dtd">
<svg version="1.0" xmlns="http://www.w3.org/2000/svg"
 width="260.000000pt" height="260.000000pt" viewBox="0 0 260.000000 260.000000"
 preserveAspectRatio="xMidYMid meet">
<metadata>
Created by potrace 1.14, written by Peter Selinger 2001-2017
</metadata>
<g transform="translate(0.000000,260.000000) scale(0.100000,-0.100000)"
fill="#000000" stroke="none">
<path d="M970 1841 c0 -6 5 -13 11 -17 16 -10 -4 -25 -43 -33 -27 -5 -34 -12
-36 -35 -3 -23 -7 -27 -25 -23 -12 3 -33 8 -47 11 -15 4 -9 -2 15 -14 44 -21
45 -33 10 -70 -13 -14 -31 -41 -39 -62 -9 -20 -21 -38 -28 -41 -10 -4 -10 -7
0 -15 11 -7 8 -20 -12 -65 -16 -38 -24 -73 -23 -109 1 -113 -3 -159 -14 -152
-7 4 -9 21 -6 40 3 19 2 34 -4 34 -5 0 -9 -9 -9 -20 0 -21 -15 -27 -25 -10 -9
14 -43 12 -47 -2 -3 -7 -31 -18 -64 -23 -53 -10 -59 -13 -56 -33 2 -16 -5 -27
-27 -40 -17 -9 -31 -22 -31 -28 0 -7 -12 -14 -27 -17 -16 -3 -48 -10 -72 -16
-31 -8 -47 -9 -56 -1 -10 8 -15 6 -20 -9 -5 -17 -15 -21 -49 -21 -56 0 -114
-24 -127 -54 -11 -24 -21 -27 -81 -26 l-38 0 0 -495 0 -495 1300 0 1300 0 0
250 c0 165 -4 250 -10 250 -6 0 -13 -7 -16 -15 -4 -8 -10 -15 -15 -15 -4 0 -6
7 -3 15 7 18 -5 20 -213 24 -46 1 -53 4 -53 21 0 14 -5 18 -16 13 -12 -4 -15
-2 -12 8 4 11 39 15 171 17 l167 2 0 270 c0 239 -2 270 -16 270 -8 0 -22 -7
-30 -15 -12 -12 -39 -14 -144 -10 -81 3 -132 1 -136 -6 -4 -7 -10 -7 -18 0
-15 12 -41 -3 -32 -18 10 -15 -49 -14 -74 1 -16 10 -24 10 -42 -1 -19 -12 -24
-11 -40 9 -17 22 -48 22 -48 0 0 -5 -8 -10 -18 -10 -10 0 -24 -6 -31 -13 -10
-10 -15 -9 -25 6 -7 9 -16 17 -19 17 -10 0 -87 -144 -87 -162 0 -10 -4 -18
-10 -18 -5 0 -10 -9 -10 -20 0 -11 -5 -20 -11 -20 -6 0 -9 -7 -6 -14 4 -10 1
-13 -7 -10 -8 3 -29 -22 -56 -68 -56 -95 -229 -356 -241 -364 -24 -14 10 46
48 85 13 13 23 30 23 37 0 8 16 36 36 64 20 27 33 50 29 50 -3 0 1 10 9 22 20
28 20 48 1 48 -8 0 -15 5 -15 10 0 6 -5 10 -11 10 -8 0 -7 -5 2 -16 10 -13 10
-17 0 -24 -8 -5 -11 -16 -6 -30 5 -15 4 -20 -4 -16 -6 4 -11 13 -11 21 0 8
-12 27 -26 42 l-27 28 8 -25 c4 -14 16 -35 27 -46 18 -21 19 -23 3 -42 -10
-11 -25 -18 -36 -15 -12 3 -21 -1 -25 -12 -5 -13 -9 -14 -15 -3 -6 8 -7 1 -3
-18 7 -38 -12 -56 -24 -23 -12 31 -60 35 -72 6 -6 -17 -8 -13 -7 20 1 48 -1
52 -34 55 -13 2 -27 8 -31 13 -5 6 -12 4 -19 -5 -9 -12 -10 -12 -5 4 8 22 -10
47 -29 40 -22 -9 -25 54 -3 81 10 13 18 31 18 40 0 12 -8 9 -31 -15 -17 -17
-33 -29 -36 -27 -8 8 31 77 43 77 7 0 20 10 29 23 l15 22 6 -22 c4 -13 10 -20
15 -17 5 3 9 -2 9 -10 0 -9 3 -16 6 -16 10 0 34 28 34 39 0 12 25 15 78 12 27
-2 32 1 32 19 0 18 3 20 14 11 10 -9 16 -9 21 -1 4 6 13 9 21 6 8 -3 14 -2 14
3 0 8 41 20 83 26 10 1 25 9 34 18 14 14 18 14 40 0 30 -20 40 -11 25 22 -11
23 -10 25 7 16 16 -9 22 -2 51 57 18 37 41 84 51 105 28 58 22 172 -13 224
-14 22 -29 61 -33 87 -7 42 -25 66 -25 31 0 -22 -17 -18 -23 5 -4 14 7 29 39
55 50 41 88 89 99 123 9 30 -6 29 -85 -9 -36 -17 -85 -33 -110 -36 -40 -4 -49
-1 -78 26 -18 17 -52 35 -75 41 -23 6 -56 18 -74 26 -17 8 -74 16 -130 18 -92
5 -153 18 -184 42 -29 22 -116 53 -135 48 -12 -3 -26 1 -33 10 -15 18 -31 21
-31 7z m820 -401 c0 -5 -4 -10 -10 -10 -5 0 -10 5 -10 10 0 6 5 10 10 10 6 0
10 -4 10 -10z m-160 -122 c0 -19 -2 -20 -10 -8 -13 19 -13 30 0 30 6 0 10 -10
10 -22z m-14 -54 c-22 -16 -56 -19 -56 -5 0 5 8 7 18 4 10 -2 24 3 32 12 7 8
16 13 19 9 3 -3 -3 -12 -13 -20z m-926 -39 c0 -9 -6 -12 -15 -9 -8 4 -15 10
-15 15 0 5 7 9 15 9 8 0 15 -7 15 -15z m-100 -45 c0 -5 -4 -10 -10 -10 -5 0
-10 5 -10 10 0 6 5 10 10 10 6 0 10 -4 10 -10z m1923 -147 c-7 -2 -19 -2 -25
0 -7 3 -2 5 12 5 14 0 19 -2 13 -5z m-583 -15 c0 6 5 12 11 12 8 0 8 -5 -1
-15 -17 -20 -30 -19 -30 3 0 14 2 15 10 2 6 -10 10 -11 10 -2z m584 -44 c10
-25 -3 -35 -27 -21 -12 6 -24 13 -26 14 -1 1 0 6 4 12 10 17 42 13 49 -5z m54
5 c-2 -6 -8 -10 -13 -10 -5 0 -11 4 -13 10 -2 6 4 11 13 11 9 0 15 -5 13 -11z
m-178 -25 c0 -8 -4 -12 -10 -9 -5 3 -10 10 -10 16 0 5 5 9 10 9 6 0 10 -7 10
-16z m-1854 -2 c5 -5 29 -14 54 -21 25 -7 53 -19 63 -26 18 -13 18 -14 0 -23
-10 -5 -43 -10 -73 -9 -44 0 -48 1 -21 6 31 5 58 31 33 31 -6 0 -19 3 -29 6
-15 5 -15 4 -3 -5 23 -16 11 -19 -86 -26 -78 -5 -92 -4 -98 10 -7 18 15 30 43
22 11 -3 28 5 42 19 25 23 58 31 75 16z m1900 -7 c-6 -18 -2 -19 26 -4 16 9
19 8 16 -3 -3 -8 -22 -14 -47 -15 -42 -2 -43 -1 -25 17 23 23 38 25 30 5z
m-179 -1 c-3 -3 -12 -4 -19 -1 -8 3 -5 6 6 6 11 1 17 -2 13 -5z m-132 -25 c4
-6 5 -12 3 -14 -7 -7 -48 7 -48 16 0 13 37 11 45 -2z m-80 -9 c-3 -5 -13 -10
-21 -10 -8 0 -12 5 -9 10 3 6 13 10 21 10 8 0 12 -4 9 -10z m190 -15 c-5 -2
-23 -7 -40 -11 l-30 -7 35 -8 c20 -4 36 -4 38 2 5 12 32 12 32 -1 0 -5 -7 -10
-15 -10 -19 0 -20 -16 -1 -27 13 -8 36 -45 36 -58 0 -3 -4 -3 -10 0 -6 4 -7
-1 -3 -11 5 -14 2 -16 -18 -11 -13 3 -40 10 -59 14 -30 8 -35 13 -35 39 0 25
-4 30 -18 26 -18 -5 -18 -21 -1 -66 4 -10 -1 -18 -12 -23 -11 -4 -24 -14 -31
-22 -11 -14 -12 -14 -13 2 0 9 -7 17 -15 17 -19 0 -19 5 3 37 9 15 12 24 5 20
-6 -4 -14 -3 -17 2 -3 5 2 12 11 15 12 5 14 9 5 18 -7 7 -12 20 -12 30 0 14 8
18 43 18 23 0 49 5 57 10 8 5 29 9 45 9 17 0 26 -2 20 -4z m122 -11 c-3 -3
-12 -4 -19 -1 -8 3 -5 6 6 6 11 1 17 -2 13 -5z m-22 -54 c3 -5 -1 -10 -10 -10
-9 0 -13 5 -10 10 3 6 8 10 10 10 2 0 7 -4 10 -10z m-1165 -45 c-15 -29 -60
-35 -60 -9 0 10 6 14 14 11 8 -3 22 3 32 14 23 25 31 16 14 -16z m-457 -2 c-7
-2 -21 -2 -30 0 -10 3 -4 5 12 5 17 0 24 -2 18 -5z m1064 -25 c-3 -7 -5 -2 -5
12 0 14 2 19 5 13 2 -7 2 -19 0 -25z m443 -42 c0 -11 -19 -15 -25 -6 -3 5 1
10 9 10 9 0 16 -2 16 -4z m-43 -48 c-3 -8 -6 -5 -6 6 -1 11 2 17 5 13 3 -3 4
-12 1 -19z m-1647 -38 c0 -5 -4 -10 -10 -10 -5 0 -10 5 -10 10 0 6 5 10 10 10
6 0 10 -4 10 -10z m85 -11 c11 -16 1 -19 -13 -3 -7 8 -8 14 -3 14 5 0 13 -5
16 -11z m-60 -9 c3 -5 -1 -10 -10 -10 -9 0 -13 5 -10 10 3 6 8 10 10 10 2 0 7
-4 10 -10z m45 -26 c0 -11 6 -13 23 -8 22 7 22 6 3 -15 -11 -11 -27 -21 -36
-21 -21 0 -31 31 -18 54 10 19 28 12 28 -10z m1369 -15 c185 2 199 -1 198 -41
0 -15 -9 -18 -46 -19 -25 0 -89 -1 -141 -2 l-95 -2 -5 -30 c-5 -27 -9 -30 -39
-27 -18 1 -45 9 -61 17 -20 10 -30 11 -32 3 -3 -8 -9 -8 -22 -1 -15 8 -16 12
-4 24 7 8 22 31 32 51 11 20 24 34 29 31 5 -3 89 -5 186 -4z m301 -44 c11 -13
5 -15 -40 -15 -45 0 -51 2 -40 15 7 8 25 15 40 15 15 0 33 -7 40 -15z m-197
-100 c-7 -21 -13 -19 -13 6 0 11 4 18 10 14 5 -3 7 -12 3 -20z m-1756 -157
c-3 -7 -5 -2 -5 12 0 14 2 19 5 13 2 -7 2 -19 0 -25z m0 -80 c-3 -8 -6 -5 -6
6 -1 11 2 17 5 13 3 -3 4 -12 1 -19z m1873 -93 c0 -5 -5 -3 -10 5 -5 8 -10 20
-10 25 0 6 5 3 10 -5 5 -8 10 -19 10 -25z m170 -6 c0 -5 -4 -9 -10 -9 -5 0
-10 7 -10 16 0 8 5 12 10 9 6 -3 10 -10 10 -16z m-121 -16 c-1 -17 -3 -21 -6
-10 -2 9 -10 17 -16 17 -7 0 -6 4 3 10 20 13 20 13 19 -17z m-144 -3 c3 -5 1
-10 -4 -10 -6 0 -11 5 -11 10 0 6 2 10 4 10 3 0 8 -4 11 -10z m245 -30 c0 -5
-4 -10 -10 -10 -5 0 -10 5 -10 10 0 6 5 10 10 10 6 0 10 -4 10 -10z"/>
<path d="M1860 539 c0 -5 5 -7 10 -4 6 3 10 8 10 11 0 2 -4 4 -10 4 -5 0 -10
-5 -10 -11z"/>
<path d="M2003 533 c15 -2 39 -2 55 0 15 2 2 4 -28 4 -30 0 -43 -2 -27 -4z"/>
<path d="M1828 463 c7 -3 16 -2 19 1 4 3 -2 6 -13 5 -11 0 -14 -3 -6 -6z"/>
<path d="M0 1256 c0 -19 6 -26 30 -31 36 -8 47 -23 24 -32 -10 -4 -20 0 -26
10 -19 34 -28 15 -28 -58 0 -41 4 -75 8 -75 5 0 17 9 27 20 11 12 13 20 6 20
-7 0 -10 4 -7 9 5 7 63 17 146 24 14 1 36 14 49 30 13 15 42 36 65 47 22 11
34 20 26 20 -13 0 -13 1 0 11 11 8 3 9 -30 5 -42 -6 -234 8 -272 20 -14 4 -18
0 -18 -20z"/>
<path d="M378 1253 c7 -3 16 -2 19 1 4 3 -2 6 -13 5 -11 0 -14 -3 -6 -6z"/>
<path d="M1985 1190 c-3 -5 1 -10 10 -10 9 0 13 5 10 10 -3 6 -8 10 -10 10 -2
0 -7 -4 -10 -10z"/>
<path d="M2545 1160 c-3 -6 6 -15 20 -20 35 -13 35 -13 35 10 0 15 -7 20 -24
20 -14 0 -28 -5 -31 -10z"/>
<path d="M1983 1133 c-24 -9 -13 -20 17 -15 17 2 30 8 30 13 0 10 -27 11 -47
2z"/>
<path d="M2487 1124 c-10 -11 3 -24 23 -24 13 0 17 5 14 15 -6 15 -26 20 -37
9z"/>
<path d="M1695 850 c3 -5 8 -10 11 -10 2 0 4 5 4 10 0 6 -5 10 -11 10 -5 0 -7
-4 -4 -10z"/>
<path d="M1310 805 c0 -8 5 -15 10 -15 6 0 10 7 10 15 0 8 -4 15 -10 15 -5 0
-10 -7 -10 -15z"/>
<path d="M1651 799 c17 -17 23 -19 30 -8 11 19 2 29 -27 29 l-24 0 21 -21z"/>
<path d="M1644 745 c-12 -9 -14 -14 -6 -15 7 0 20 7 28 15 20 19 4 20 -22 0z"/>
<path d="M1510 631 c0 -10 19 -25 25 -20 1 2 -3 10 -11 17 -8 7 -14 8 -14 3z"/>
</g>
</svg>
